# xmcd
#
# Track frame offsets:
# 150
# 32148
# 57459
# 84344
# 115450
# 145031
# 172111
# 200668
# 229044
# 260589
# 288275
# 321959
#
# Disc length: 4707 seconds
#
#
# Revision: 0
# Processed by: cddbd v1.4PL0 Copyright (c) Steve Scherf et al.
# Submitted via: FreeRIP 2.30 
#
DISCID=b212610c
DTITLE=Llorca - New Comer
DYEAR=1234
DGENRE=Acid Jazz
TTITLE0=The Novel of Sound
TTITLE1=Any how
TTITLE2=Indigo Blues
TTITLE3=Lights behind windows
TTITLE4=Myprecious thing
TTITLE5=I cry
TTITLE6=Lalo caught me dancing
TTITLE7=True to me
TTITLE8=Indigo blues (Faze Action Mix)
TTITLE9=Myprecious thing (Llorca extended mix)
TTITLE10=Indigo blues (Alexkid Mix)
TTITLE11=Myprecious thing (Rollercone mix)
EXTD=
EXTT0=
EXTT1=
EXTT2=
EXTT3=
EXTT4=
EXTT5=
EXTT6=
EXTT7=
EXTT8=
EXTT9=
EXTT10=
EXTT11=
PLAYORDER=
